#!OML:ASF H:\Terrain\Patient Classification 1\Walking\liu\liu.ASF
:FULLY-SPECIFIED
:DEGREES
33
root 7.983750 15.714900 -32.153999 7.565720 -8.237650 -7.409000
lowerback -4.130055 0.804620 1.959915
upperback -0.516335 0.819135 1.849115
thorax 1.781880 0.420761 0.909225
lowerneck -10.269150 -2.262805 -5.843050
upperneck 8.156250 -2.902200 7.252200
head 4.661140 -0.963345 3.103770
rclavicle 0.000000 0.000000
rhumerus -22.194000 10.405900 -46.532600
rradius 30.374300
rwrist -14.949250
rhand -14.931400 -15.525300
rfingers 3.562510
rthumb -1.592490 -30.503300
lclavicle 0.000000 0.000000
lhumerus -21.573351 -4.172490 45.617550
lradius 12.806900
lwrist 1.480540
lhand -5.657400 -13.046250
lfingers 3.562510
lthumb 7.358600 1.682530
rfemur 9.628050 3.514005 15.395400
rtibia 0.000000
rfoot -5.150100 -0.238351
rtoes -15.615050
lfemur -20.501450 2.744770 -4.394490
ltibia 12.086750
lfoot -4.384920 5.650300
ltoes -7.394800
34
root 8.009290 15.724700 -31.983000 7.553060 -8.645110 -7.300170
lowerback -4.182545 0.809945 1.797695
upperback -0.487870 0.833470 1.913785
thorax 1.834255 0.425698 1.071525
lowerneck -10.346700 -2.255860 -5.907050
upperneck 8.169800 -2.862065 7.234950
head 4.674870 -0.947635 3.115340
rclavicle -0.000000 -0.000000
rhumerus -22.279551 10.475100 -46.550152
rradius 30.260651
rwrist -14.794000
rhand -14.979100 -15.594350
rfingers 3.562510
rthumb -1.638545 -30.571650
lclavicle -0.000000 -0.000000
lhumerus -21.634501 -3.990940 45.666401
lradius 12.685150
lwrist 1.255615
lhand -4.342985 -11.756850
lfingers 3.562510
lthumb 8.624350 2.870410
rfemur 9.907400 3.612435 15.208300
rtibia -0.000000
rfoot -4.867930 -0.143247
rtoes -15.324500
lfemur -20.620899 3.191875 -4.671240
ltibia 12.630500
lfoot -3.111910 5.573100
ltoes -8.482000
35
root 8.038840 15.724800 -31.815599 7.593140 -8.772540 -7.114770
lowerback -4.289500 0.778095 1.624370
upperback -0.444073 0.796860 1.951630
thorax 1.934160 0.405311 1.208710
lowerneck -10.399700 -2.251870 -5.966500
upperneck 8.048450 -2.828990 7.278950
head 4.641275 -0.930545 3.142805
rclavicle 0.000000 0.000000
rhumerus -22.309151 10.473150 -46.556549
rradius 30.148600
rwrist -14.591500
rhand -15.180700 -16.229250
rfingers 3.562510
rthumb -1.833250 -31.203350
lclavicle 0.000000 0.000000
lhumerus -21.737350 -3.918315 45.764301
lradius 12.706000
lwrist 1.148555
lhand -4.661525 -11.634100
lfingers 3.562510
lthumb 8.317750 3.019465
rfemur 10.204050 3.580665 14.981900
rtibia -0.000000
rfoot -4.750780 -0.022254
rtoes -15.542500
lfemur -20.827700 3.485840 -4.970415
ltibia 13.255900
lfoot -2.080180 5.297350
ltoes -6.441800
36
root 8.071800 15.696200 -31.653700 7.660070 -8.621840 -6.980280
lowerback -4.345125 0.722480 1.501730
upperback -0.452695 0.731145 1.967140
thorax 1.953855 0.370768 1.287535
lowerneck -10.480950 -2.265280 -5.852750
upperneck 8.011150 -2.843570 7.156400
head 4.637245 -0.939945 3.074510
rclavicle -0.000000 -0.000000
rhumerus -22.316650 10.459300 -46.643501
rradius 29.820250
rwrist -14.444550
rhand -15.350050 -16.515800
rfingers 3.562510
rthumb -1.996765 -31.486950
lclavicle -0.000000 -0.000000
lhumerus -21.889549 -4.038555 45.941898
lradius 12.729950
lwrist 1.223390
lhand -7.563100 -13.475900
lfingers 3.562510
lthumb 5.521500 1.368835
rfemur 10.519100 3.420475 14.792700
rtibia -0.000000
rfoot -4.460880 -0.018644
rtoes -12.181100
lfemur -21.106100 3.596200 -5.194250
ltibia 13.972650
lfoot -1.214380 4.973590
ltoes -3.590240
